<?xml version="1.0" encoding="utf-8"?>
<!-- Generator: Adobe Illustrator 22.0.0, SVG Export Plug-In . SVG Version: 6.00 Build 0)  -->
<svg version="1.1" id="Layer_1" xmlns="http://www.w3.org/2000/svg" xmlns:xlink="http://www.w3.org/1999/xlink" x="0px" y="0px"
	 viewBox="0 0 251.4 49.7" style="enable-background:new 0 0 251.4 49.7;" xml:space="preserve">
<style type="text/css">
	.st0{fill:#58595B;}
	.st1{fill:#25A9E0;}
	.st2{fill:#1C73BA;}
</style>
<g>
	<path class="st0" d="M155.8,35.2c0,1.9-0.4,3.6-1.1,5.2c-0.7,1.5-1.7,2.9-2.9,3.9c-1.2,1.1-2.6,1.9-4.2,2.5
		c-1.6,0.6-3.3,0.9-5.1,0.9c-1.6,0-3.2-0.2-4.7-0.7c-1.5-0.4-2.9-1-4.1-1.7c-1.2-0.7-2.4-1.5-3.3-2.3c-0.4-0.3-0.7-0.7-1.1-1
		l2.8-5.8l0.2,0.2c0.5,0.5,1.1,1.1,1.8,1.7c0.7,0.6,1.4,1.1,2.2,1.6s1.7,0.9,2.6,1.2c0.9,0.3,1.9,0.4,3,0.4c1,0,1.9-0.1,2.8-0.4
		c0.9-0.3,1.7-0.7,2.3-1.2c0.7-0.5,1.2-1.2,1.6-1.9c0.4-0.8,0.6-1.7,0.6-2.7c0-1.4-0.3-2.6-1-3.5c-0.7-0.9-1.6-1.7-2.7-2.3
		c-1.1-0.6-2.2-1.1-3.4-1.5s-2.3-0.8-3.3-1.2c-0.7-0.3-1.6-0.7-2.6-1.2c-1.1-0.5-2.1-1.2-3-2.1c-1-0.9-1.8-2-2.5-3.3
		s-1.1-2.9-1.1-4.8c0-1.4,0.1-2.8,0.6-4.2c0.4-1.4,1.1-2.7,2.1-3.9s2.3-2.1,3.9-2.8c1.6-0.7,3.6-1.1,5.9-1.1c1.7,0,3.4,0.3,5.2,0.9
		s3.8,1.8,6,3.7l0.5,0.5L153.5,9c-0.5,0.6-1,1.2-1.4,1.8c-0.5,0.6-1,1.2-1.4,1.8l-0.5,0.6l-0.6-0.6c-0.3-0.3-0.7-0.6-1.2-1
		s-1-0.7-1.7-1c-0.6-0.3-1.3-0.6-2.1-0.8s-1.6-0.3-2.4-0.3c-2.1,0-3.6,0.6-4.6,1.7c-1,1.2-1.5,2.6-1.5,4.2c0,0.9,0.2,1.6,0.5,2.2
		s0.8,1.1,1.3,1.5c0.6,0.4,1.2,0.8,1.9,1.1c0.8,0.3,1.6,0.6,2.4,0.9l0,0c1.3,0.5,2.8,1.1,4.3,1.7c1.6,0.7,3.1,1.6,4.4,2.6
		c1.4,1.1,2.5,2.4,3.4,4C155.3,31.1,155.8,33,155.8,35.2z"/>
	<path class="st0" d="M203.6,46.1c-3.3-7.8-6.3-15-9.3-22c-2.9-6.8-5.8-13.7-8.7-20.5H183c-3.1,7.2-5.9,14-8.7,20.5
		c-3.1,7.3-6.2,14.6-9.3,22l-0.4,1.1h6.6l0.2-0.5c1.1-2.7,2.3-5.5,3.5-8.3c1.1-2.6,2.2-5.2,3.3-7.9h12.2c1.1,2.6,2.2,5.3,3.3,7.9
		c1.2,2.8,2.4,5.6,3.5,8.3l0.2,0.5h6.6L203.6,46.1z M180.9,24.3c0.7-1.5,1.3-3.1,2-4.6c0.5-1.1,1-2.3,1.4-3.5c0.6,1.5,1.3,3,1.9,4.4
		c0.5,1.3,1.1,2.5,1.6,3.7H180.9z"/>
	<rect x="157.8" y="3.6" class="st0" width="6.5" height="43.5"/>
	<polygon class="st0" points="211,18.2 211,47.2 204.6,47.2 204.6,3.6 236.3,33.1 236.3,3.6 242.8,3.6 242.8,47.1 	"/>
	<polygon class="st0" points="71.9,47.2 65.3,47.2 88.6,3.6 95.2,3.6 	"/>
	<polygon class="st0" points="73.9,42.6 77.7,35.3 64,3.6 57.4,3.6 	"/>
	<path class="st0" d="M6.7,47.2V3.6h10.7c1.4,0,3,0.2,4.7,0.7c1.7,0.4,3.4,1.1,4.9,2.1s2.8,2.2,3.8,3.8s1.6,3.5,1.6,5.7
		c0,3.8-1.2,6.9-3.5,9.2s-5.6,3.4-9.9,3.4h-5.8v18.7C13.2,47.2,6.7,47.2,6.7,47.2z M17.6,22.1c1.7,0,3-0.2,4.1-0.6
		c1-0.4,1.9-0.9,2.5-1.5s1-1.3,1.3-2c0.3-0.8,0.4-1.5,0.4-2.2s-0.2-1.5-0.6-2.2s-1-1.4-1.7-1.9c-0.7-0.6-1.6-1-2.6-1.3
		s-2.1-0.5-3.3-0.5h-4.5v12.3h4.4V22.1z"/>
	<path class="st0" d="M64.9,46.1c-3.3-7.8-6.3-15-9.3-22c-2.9-6.8-5.8-13.7-8.7-20.5h-2.6c-3.1,7.2-5.9,14-8.7,20.5
		c-3.1,7.3-6.2,14.6-9.3,22l-0.4,1.1h6.6l0.2-0.5c1.1-2.7,2.3-5.5,3.5-8.3c1.1-2.6,2.2-5.2,3.3-7.9h12.2c1.1,2.6,2.2,5.3,3.3,7.9
		c1.2,2.8,2.4,5.6,3.5,8.3l0.2,0.5h6.6L64.9,46.1z M42.2,24.3c0.7-1.5,1.3-3.1,2-4.6c0.5-1.1,1-2.3,1.4-3.5c0.6,1.5,1.3,3,1.9,4.4
		c0.5,1.3,1.1,2.5,1.6,3.7H42.2z"/>
	<polygon class="st1" points="106.3,47.2 99.4,32.6 120.4,32.6 122.9,47.2 	"/>
	<polygon class="st1" points="91.6,47.2 76.7,47.2 99.7,3.6 114.6,3.6 	"/>
	<polygon class="st2" points="122.9,47.2 130,32.6 114.7,3.6 99.8,3.6 	"/>
</g>
</svg>
